<?xml version="1.0" standalone="no"?>
<!DOCTYPE svg PUBLIC "-//W3C//DTD SVG 20010904//EN"
 "http://www.w3.org/TR/2001/REC-SVG-20010904/DTD/svg10.dtd">
<svg version="1.0" xmlns="http://www.w3.org/2000/svg"
 width="115.000000pt" height="110.000000pt" viewBox="0 0 115.000000 110.000000"
 preserveAspectRatio="xMidYMid meet">
<metadata>
Created by potrace 1.16, written by Peter Selinger 2001-2019
</metadata>
<g transform="translate(0.000000,110.000000) scale(0.100000,-0.100000)"
fill="#000000" stroke="none">
<path d="M566 1080 c-203 -65 -334 -282 -296 -490 17 -95 55 -166 124 -236
179 -179 445 -179 621 1 66 67 96 120 120 210 19 74 19 113 0 194 -37 156
-148 276 -298 323 -77 24 -193 23 -271 -2z m226 -1 c180 -38 321 -199 335
-381 14 -180 -75 -336 -235 -415 -68 -34 -85 -38 -168 -41 -68 -3 -107 1 -146
13 -230 74 -353 322 -274 548 72 202 280 320 488 276z"/>
<path d="M632 1050 c-207 -44 -351 -251 -314 -452 24 -130 102 -232 222 -291
60 -30 72 -32 165 -32 88 0 107 3 157 27 284 133 315 521 55 689 -87 57 -193
78 -285 59z m233 -45 c75 -36 140 -103 179 -185 28 -59 31 -74 31 -160 -1 -79
-5 -104 -24 -145 l-24 -50 -9 53 c-7 40 -6 57 3 69 8 8 18 30 25 48 10 31 9
37 -25 81 -46 61 -93 87 -145 80 -84 -10 -132 -79 -130 -189 1 -37 -2 -67 -7
-67 -25 0 -88 33 -82 44 4 6 -1 5 -10 -3 -19 -15 -23 -26 -5 -15 19 12 1 -84
-23 -122 -11 -19 -24 -34 -27 -34 -4 0 -22 21 -39 48 -23 32 -33 59 -33 84 l0
37 -35 -24 c-43 -28 -101 -49 -119 -42 -40 16 -45 212 -8 297 46 104 139 188
240 217 76 21 196 11 267 -22z m30 -346 c33 -25 55 -49 55 -61 0 -11 5 -16 10
-13 6 3 10 -3 10 -14 0 -12 -4 -21 -9 -21 -11 0 -26 -39 -23 -60 7 -45 14 -59
33 -65 20 -7 20 -8 -12 -41 -18 -19 -38 -33 -44 -30 -6 2 -17 -4 -23 -14 -21
-34 -154 -66 -227 -56 -56 9 -58 25 -7 76 30 31 51 41 101 51 81 17 92 35 54
85 -21 28 -28 50 -31 98 -4 58 -2 62 22 75 14 8 26 18 26 23 0 13 7 10 65 -33z"/>
<path d="M519 900 c-65 -34 -96 -105 -77 -176 18 -66 38 -66 38 0 l0 54 43 7
c23 3 57 11 75 17 29 9 37 7 58 -13 16 -15 24 -33 24 -56 0 -18 4 -33 10 -33
5 0 7 -8 3 -17 -5 -14 -3 -16 7 -6 7 6 15 43 18 81 5 79 -8 108 -63 142 -40
25 -89 25 -136 0z"/>
<path d="M68 742 c-59 -4 -63 -21 -5 -24 l42 -1 -37 -4 c-49 -5 -49 -21 0 -26
33 -3 32 -4 -11 -5 -59 -2 -54 -21 6 -23 l42 -2 -40 -7 c-39 -7 -39 -7 -7 -9
45 -1 31 -21 -16 -22 -32 -2 -33 -3 -9 -6 19 -3 27 -9 23 -18 -3 -8 3 -19 12
-24 13 -8 9 -11 -23 -11 -29 -1 -35 -3 -20 -9 10 -4 39 -4 63 1 24 4 61 4 83
-1 21 -5 39 -5 39 -1 0 5 -13 11 -30 15 -26 6 -28 9 -17 26 6 10 20 19 31 19
11 0 17 3 14 6 -4 3 -27 6 -52 6 -25 0 -46 4 -46 9 0 5 17 9 37 9 20 0 44 7
54 16 17 15 17 17 1 34 -9 10 -33 20 -52 23 -30 3 -28 4 13 5 26 1 47 6 47 11
0 11 -74 17 -142 13z"/>
<path d="M22 469 c-1 -31 -5 -78 -9 -104 -4 -35 -3 -46 5 -41 7 4 12 23 12 42
0 24 5 34 15 34 11 0 15 -12 16 -42 1 -24 4 -33 6 -20 4 19 11 22 49 22 37 0
44 -3 44 -20 0 -11 5 -20 10 -20 6 0 10 9 10 19 0 12 8 21 23 24 l22 4 -22 2
c-26 1 -32 35 -8 45 22 8 20 75 -2 82 -10 3 -25 9 -33 13 -21 11 -70 -10 -70
-31 0 -31 -19 -19 -23 15 l-3 32 -8 -32 c-5 -18 -12 -33 -17 -33 -4 0 -10 15
-12 33 -2 20 -4 11 -5 -24z"/>
</g>
</svg>
